<?xml version="1.0" standalone="no"?>
<svg version="1.0" xmlns="http://www.w3.org/2000/svg" width="225.000000pt" height="225.000000pt"
  viewBox="0 0 225.000000 225.000000" preserveAspectRatio="xMidYMid meet">

  <g transform="translate(0.000000,225.000000) scale(0.100000,-0.100000)" fill="#fff" stroke="none">
    <path d="M307 1802 c-21 -12 -50 -60 -109 -176 -43 -87 -78 -159 -76 -161 3
-3 691 -431 886 -551 l102 -64 0 34 c0 33 -1 34 -451 307 -248 150 -457 278
-466 284 -12 9 -2 36 66 178 44 92 79 167 78 167 -1 0 -15 -8 -30 -18z" />
    <path d="M1944 1747 c19 -40 51 -108 74 -152 22 -45 42 -89 44 -98 2 -12 -110
-85 -457 -296 -459 -279 -460 -279 -463 -315 l-3 -36 243 152 c134 83 335 208
448 278 113 70 226 140 251 156 l45 29 -76 158 c-60 123 -84 163 -108 177
l-30 19 32 -72z" />
    <path d="M520 1660 l-60 -120 41 -29 c22 -17 77 -42 122 -57 214 -70 334 -140
443 -256 l60 -64 31 42 c38 50 173 154 252 193 31 16 110 48 175 71 116 41
152 57 188 88 17 14 14 23 -44 134 -48 91 -66 117 -78 112 -8 -4 -69 -28 -135
-54 -236 -92 -332 -156 -373 -249 l-20 -43 -12 36 c-28 85 -162 177 -362 250
-53 19 -110 41 -126 50 -17 9 -33 16 -36 16 -3 0 -33 -54 -66 -120z" />
    <path d="M475 1754 c-37 -14 -45 -24 -113 -150 -40 -75 -72 -137 -70 -139 2
-2 168 -103 370 -225 l368 -221 35 26 35 27 -48 56 c-117 138 -222 205 -435
278 -97 34 -207 94 -207 113 0 6 26 64 59 130 32 67 56 121 52 120 -3 0 -24
-7 -46 -15z" />
    <path d="M1783 1644 l62 -125 -25 -20 c-42 -33 -117 -69 -224 -106 -164 -57
-228 -96 -346 -209 l-105 -102 20 -22 c44 -48 32 -53 422 181 202 122 369 222
371 224 1 1 -31 62 -71 136 -71 130 -75 135 -120 151 l-47 18 63 -126z" />
    <path d="M702 993 c-51 -29 -67 -44 -87 -84 -14 -26 -25 -50 -25 -53 0 -2 37
18 82 45 44 27 89 49 99 49 19 0 49 -35 49 -57 0 -38 -196 -194 -314 -250 -31
-14 -45 -31 -76 -93 -28 -57 -36 -80 -29 -93 6 -9 14 -17 19 -17 8 0 594 351
643 385 16 11 0 23 -135 105 -84 51 -155 94 -158 95 -3 1 -33 -13 -68 -32z" />
    <path d="M1328 937 c-81 -51 -150 -95 -153 -98 -6 -6 637 -399 653 -399 24 0
21 38 -8 105 l-31 71 -94 53 c-152 87 -265 185 -265 232 0 19 31 49 51 49 8 0
51 -22 97 -50 45 -27 82 -47 82 -45 0 3 -12 27 -27 54 -22 38 -42 58 -90 85
-34 20 -63 36 -65 35 -2 0 -69 -42 -150 -92z" />
    <path d="M682 875 c-92 -53 -95 -57 -79 -79 12 -17 19 -14 105 39 75 46 90 60
81 71 -16 20 -25 17 -107 -31z" />
    <path d="M1457 908 c-15 -11 -5 -20 79 -72 90 -55 96 -57 109 -40 17 23 13 27
-91 85 -82 45 -75 43 -97 27z" />
  </g>
</svg>