<?xml version="1.0" encoding="utf-8"?>
<!-- Generator: Adobe Illustrator 26.0.1, SVG Export Plug-In . SVG Version: 6.00 Build 0)  -->
<svg version="1.1" id="Слой_1" xmlns="http://www.w3.org/2000/svg" xmlns:xlink="http://www.w3.org/1999/xlink" x="0px"
	y="0px" viewBox="0 0 1000 1000" style="enable-background:new 0 0 1000 1000;" xml:space="preserve">
	<style type="text/css">
		.st0 {
			fill: none;
			stroke: var(--shape-color);
			stroke-width: 10;
			stroke-miterlimit: 10;
		}

		.st1 {
			fill: none;
			stroke: var(--shape-color);
			stroke-width: 3;
			stroke-miterlimit: 10;
		}

		:root {
			--shape-color: #fff;
		}
	</style>
	<g>
		<polygon class="st0" points="853.55,500 750,603.55 750,750 603.55,750 500,853.55 396.45,750 250,750 250,603.55 146.45,500 
		250,396.45 250,250 396.45,250 500,146.45 603.55,250 750,250 750,396.45 	" />
	</g>
	<g>
		<polygon class="st1"
			points="805.78,500 716.22,589.56 716.22,716.22 589.56,716.22 500,805.78 410.44,716.22 283.78,716.22 
		283.78,589.56 194.22,500 283.78,410.44 283.78,283.78 410.44,283.78 500,194.22 589.56,283.78 716.22,283.78 716.22,410.44 	" />
	</g>
</svg>